inDegrees=yes
name=ik_Xsens_quaternion
DataType=double
version=3
OpenSimVersion=4.4-2022-07-23-0e9fedc
endheader
time	r_shoulder_elev	r_elbow_flex
0	0	0
0.01666666666666667	-3.908963210198738	60.71913727053001
0.03333333333333333	-5.731762009219183	116.0948712375962
0.05	-18.77249084077439	244.3678032461549
0.06666666666666667	-42.95578949784501	152.5842241745057
0.08333333333333333	-39.2099502520671	271.2777901507296
0.1	-53.7252764946842	409.4555258711452
0.1166666666666667	-43.72217104460884	570.0184524452014
0.1333333333333333	-67.54377800515846	484.1274990572529
0.15	-55.58512114339096	642.882990341363
0.1666666666666667	-65.7704731982619	783.9080714316489
0.1833333333333333	-51.00362014524462	875.9609092710228
0.2	-49.04611643414834	935.412590108676
0.2166666666666667	-53.6521613180514	957.2069848507538
0.2333333333333333	-56.56362928580914	926.7222843563782
0.25	-63.77276342249847	891.7697676317748
0.2666666666666667	-71.01540024955771	888.6008319641552
0.2833333333333333	-78.1484284549679	924.5394687899692
0.3	-92.25591684549615	951.6854868204277
0.3166666666666667	-102.739764113694	958.5651873777535
0.3333333333333333	-105.5789734521467	962.6160375697815
0.35	-108.7893304179081	981.1549976263212
0.3666666666666666	-136.9834739713728	1036.055640397075
0.3833333333333333	-133.2012777582987	1055.721727749242
0.4	-106.7121517941014	1066.506811256555
0.4166666666666667	-68.74357884128069	1095.661372086222
0.4333333333333333	-19.62725781161081	1130.807892990857
0.45	29.25833167149156	1175.938037462987
0.4666666666666667	71.13890761412023	1232.663546643328
0.4833333333333333	83.05325682458131	1343.431671744343
0.5	62.296312673686	1509.620274503908
0.5166666666666666	79.30589158038174	1583.890076210924
0.5333333333333333	84.79313064873493	1625.161668433459
0.55	80.0663512537043	1666.99695947022
0.5666666666666667	57.94644744800256	1724.109040513586
0.5833333333333334	31.33442040829551	1759.245046926762
0.6	34.56448438824287	1725.015712845906
0.6166666666666667	44.27202126298422	1648.818956881875
0.6333333333333333	18.48549337471934	1571.204770770737
0.65	0.8122008777773493	1453.871827227687
0.6666666666666666	57.4357426200661	1256.549499197195
0.6833333333333333	40.27777792848828	1162.167075854125
0.7	64.42116624591607	1026.351183311368
0.7166666666666667	81.20947732923311	912.6703682988727
0.7333333333333333	73.289239391519	852.8995332289718
0.75	71.56851495258333	812.4358621759924
0.7666666666666666	79.23892664275297	810.4250949980441
0.7833333333333333	90.42480644331778	828.9604184700352
0.8	98.4671848577064	841.4079162511282
0.8166666666666667	103.8840335596011	853.0022507027635
0.8333333333333334	106.7711513072048	865.5671166390539
0.85	106.3505667469059	870.7192001687897
0.8666666666666667	104.9127695314217	871.1516399778868
0.8833333333333333	104.5171732365623	870.7397998313398
0.9	108.185006073038	880.1133959464063
0.9166666666666666	114.8132743633949	896.670553588311
0.9333333333333333	122.7519592771758	925.8984843235471
0.95	123.6799814517782	985.6141277197842
0.9666666666666667	106.1775219440764	1084.732189672628
0.9833333333333333	108.4307406281209	1150.738036147426
1	122.2827478420874	1201.455538731396
1.016666666666667	136.3470795085346	1253.890949021771
1.033333333333333	121.543542083759	1348.629666638545
1.05	70.99600715179649	1498.918052557209
1.066666666666667	80.04658358145423	1563.36633642623
1.083333333333333	91.82482485416176	1608.04196327172
1.1	95.9831185970629	1651.924558286609
1.116666666666667	55.29131990965644	1750.613392355818
1.133333333333333	6.448469271210493	1858.91520845857
1.15	13.40388940245141	1899.947890760718
1.166666666666667	24.50858194660494	1929.565568725668
1.183333333333333	30.22717046239866	1953.813174345542
1.2	30.60032534537104	1971.859008976795
1.216666666666667	27.00619523492636	1990.293906386818
1.233333333333333	21.60394178477883	2008.348120846262
1.25	18.14337043799449	2024.103013768782
1.266666666666667	11.26492306528621	2050.236110223476
1.283333333333333	10.92280441554787	2051.156174698779
1.3	15.2786071735173	2032.154639783802
1.316666666666667	12.43383847102666	2026.932996699275
1.333333333333333	0.8371525214534069	2041.62426734661
1.35	-20.95044411581237	2071.974594878711
1.366666666666667	-34.08069148494054	2084.382774239586
1.383333333333333	-41.30721069044068	2086.112459483414
1.4	-38.02561029166552	2075.225959570678
1.416666666666667	-18.56728609313893	2043.131233624003
1.433333333333333	-12.91271109435484	2038.779246766524
1.45	-51.57469451370842	2110.655131635624
1.466666666666667	-78.98577882388777	2197.50760349666
1.483333333333333	-64.40062574372702	2244.965902194157
1.5	-44.97409089315564	2288.303118336241
1.516666666666667	-34.61883840282363	2325.408898918454
1.533333333333333	-40.0734766524219	2336.063950147775
1.55	-50.22958891976463	2328.019713263697
1.566666666666667	-72.49585886860302	2303.401663026688
1.583333333333333	-99.52178031883531	2280.923131120191
1.6	-143.2762214351343	2253.272818158528
1.616666666666667	-189.0962991549414	2231.29209400467
1.633333333333333	-221.856385372269	2177.407674978605
1.65	-201.6654287403433	2045.132378566592
1.666666666666667	-249.3153111752981	1979.743384897151
1.683333333333333	-308.9775847928476	1900.841412565575
1.7	-352.9732507260455	1807.026492870154
1.716666666666667	-359.623073972606	1701.896998143553
1.733333333333333	-387.9020403209669	1629.22233251108
1.75	-430.8991088803112	1562.059128102686
1.766666666666667	-430.0832165325139	1719.031381657947
1.783333333333333	-453.6223837851038	1897.508018162649
1.8	-478.9813949696388	1789.683682844404
1.816666666666667	-482.7468223755848	1657.595734185246
1.833333333333333	-525.4551025425017	1538.114398699586
1.85	-500.8215420385681	1611.370869831014
1.866666666666667	-530.9410909236103	1500.771576781074
1.883333333333333	-511.6043887701077	1312.701259048606
1.9	-527.851245468479	1384.441381683717
1.916666666666667	-492.4149220631506	1460.548727261549
1.933333333333333	-485.3379591150446	1561.309984063188
1.95	-446.528265947024	1492.183128665789
1.966666666666667	-427.1658554091183	1639.858807265045
1.983333333333333	-401.5463462986519	1637.710805742993
2	-430.4572496679331	1772.071844759107
2.016666666666667	-452.8120529318935	1880.066889005195
2.033333333333333	-451.3560311873242	1839.329520599692
2.05	-464.9596672189565	1946.78070536256
2.066666666666666	-469.9614981203952	1882.106113298535
2.083333333333333	-482.5308420263447	1937.127475875046
2.1	-482.1240601945139	1868.656439013682
2.116666666666667	-485.5065841190882	1923.91764068689
2.133333333333333	-475.6210086117851	1913.484380942847
2.15	-469.5973732676391	2061.17572513107
2.166666666666667	-483.6122796862788	2242.007141426901
2.183333333333333	-462.8867168866882	2393.960313250695
2.2	-466.7651929264912	2270.239930054512
2.216666666666667	-463.9590517483597	2184.050477539912
2.233333333333333	-439.1766619231105	2089.670737581786
2.25	-412.5435096816493	2003.534196425263
2.266666666666667	-394.2368744926719	1951.436010313974
2.283333333333333	-372.8540521544874	1939.461588793315
2.3	-348.8242902082009	1946.954867341428
2.316666666666666	-324.2354985887618	1951.54499614449
2.333333333333333	-300.332582615966	1942.411565730633
2.35	-360.9064075486872	2003.637955889971
2.366666666666667	-438.6098615782778	2073.95915793375
2.383333333333333	-423.7954965587991	2086.380662600556
2.4	-358.5533788531944	2060.356212337628
2.416666666666667	-476.805709191694	2222.096702842403
2.433333333333333	-595.9714816411204	2349.535188462263
2.45	-555.5988699904677	2200.664601848928
2.466666666666667	-520.7673892926608	2062.342897906035
2.483333333333333	-505.2909573844549	1985.395087169235
2.5	-472.5644987147632	1837.843801273668
2.516666666666667	-357.3193477698351	1660.690064285612
2.533333333333333	-426.1735300665775	1739.337436549809
2.55	-377.1851912345593	1872.167241025764
2.566666666666666	-388.6958710942105	1985.779594338519
2.583333333333333	-358.2367488226672	2040.101250245156
2.6	-471.3320817624632	2304.492459457406
2.616666666666667	-372.4925384672791	2248.433237885
2.633333333333333	-373.8885280198475	2399.826430522914
2.65	-397.813314737083	2543.131930260635
2.666666666666667	-333.8233967551504	2603.822329559726
2.683333333333333	-361.7640525991275	2692.003363830456
2.7	-322.3186545978633	2535.728438218237
2.716666666666667	-185.3197473741253	2465.230786895831
2.733333333333333	-13.93866046145554	2282.263126641107
2.75	-3.53855406834014	2180.807245122726
2.766666666666667	-24.75818268059524	2098.402027236275
2.783333333333333	82.45185308466833	1913.593557060957
2.8	20.53599971206341	1838.810505631501
2.816666666666666	10.41281069504525	1814.800667780805
2.833333333333333	10.44720890105948	1828.450975013813
2.85	0.9241998922717983	1899.638101001753
2.866666666666667	201.4807712342105	1822.921551356379
2.883333333333333	65.63669807306472	2039.347704903057
2.9	53.31522673910171	2099.415097681695
2.916666666666667	55.36573560313508	2140.853486664269
2.933333333333333	56.08509051269504	2196.950247548945
2.95	51.2862687037793	2275.028194729975
2.966666666666667	48.2776341131608	2341.876959602065
2.983333333333333	49.88570197209796	2391.75020816139
3	58.2756469905785	2423.373277854757
3.016666666666667	80.16686158264469	2431.094017030829
3.033333333333333	27.82538310704632	2502.902340950421
3.05	68.30000413260856	2480.875680750144
3.066666666666666	101.1389180752449	2460.395894336355
3.083333333333333	128.6497858951193	2442.509883802046
3.1	151.0599446939268	2430.242923395174
3.116666666666667	166.0028004427626	2427.01481366795
3.133333333333333	169.506091088806	2437.025044895185
3.15	165.3101877970309	2455.388151601054
3.166666666666667	164.0999321998105	2470.807188005876
3.183333333333333	167.1305215594706	2481.670797015009
3.2	169.1159782681046	2494.077411901979
3.216666666666667	168.8854458090139	2509.295642079551
3.233333333333333	168.754538013984	2523.679363096178
3.25	168.6092176025157	2536.099910097464
3.266666666666667	166.4909197167995	2549.190229651888
3.283333333333333	163.4938551555497	2561.465451719026
3.3	162.3320171430588	2570.285284215998
3.316666666666666	164.7923074553041	2575.069550389092
